<?xml version="1.0" encoding="utf-8"?>
<!-- Generator: Adobe Illustrator 21.1.0, SVG Export Plug-In . SVG Version: 6.00 Build 0)  -->
<svg version="1.1" id="Layer_1" xmlns="http://www.w3.org/2000/svg" xmlns:xlink="http://www.w3.org/1999/xlink" x="0px" y="0px"
	 viewBox="0 0 80 80" style="enable-background:new 0 0 80 80;" xml:space="preserve">
<style type="text/css">
	.st0{fill:#FFFFFF;}
</style>
<g>
	<g>
		<path class="st0" d="M39.8,27.7c-1.2,0-2.2-0.9-2.2-2.2V17c0-1.2,0.9-2.2,2.2-2.2S42,15.8,42,17v8.5C42,26.7,41,27.7,39.8,27.7z"
			/>
		<path class="st0" d="M34.1,30.1c-0.5,0-1.1-0.3-1.5-0.7l-5.9-5.9c-0.8-0.8-0.8-2.3,0-3.1c0.8-0.8,2.3-0.8,3.1,0l5.9,5.9
			c0.8,0.8,0.8,2.3,0,3.1C35.4,30,34.8,30.1,34.1,30.1z"/>
		<path class="st0" d="M31.9,35.8h-8.5c-1.2,0-2.2-0.9-2.2-2.2s0.9-2.2,2.2-2.2h8.5c1.2,0,2.2,0.9,2.2,2.2
			C34.1,34.8,33.1,35.8,31.9,35.8z"/>
		<path class="st0" d="M56.4,35.6L56.4,35.6h-8.5c-1.2,0-2.2-0.9-2.2-2.2s0.9-2.2,2.2-2.2l0,0h8.5c1.2,0,2.2,0.9,2.2,2.2
			C58.6,34.7,57.6,35.6,56.4,35.6z"/>
		<path class="st0" d="M45.6,30c-0.5,0-1.1-0.3-1.5-0.7c-0.8-0.8-0.8-2.3,0-3.1l5.9-5.9c0.8-0.8,2.3-0.8,3.1,0
			c0.8,0.8,0.8,2.3,0,3.1l-5.9,5.9C46.7,29.8,46.2,30,45.6,30z"/>
	</g>
	<g>
		<path class="st0" d="M63.7,9.9C57.2,3.3,48.6,0,39.9,0S22.8,3.3,16.2,9.9C3.1,23,3.1,44.3,16.2,57.4C22.3,63.4,39.9,80,39.9,80
			s16.7-15.6,23.7-22.7C76.9,44.3,76.9,23,63.7,9.9z M57.4,51c-4.2,4.2-11.9,11.5-17.4,16.7c-5.7-5.4-13.8-13-17.4-16.7
			c-9.6-9.6-9.6-25.2,0-34.8c4.6-4.6,10.8-7.2,17.4-7.2s12.7,2.6,17.4,7.2C66.9,25.8,66.9,41.4,57.4,51z"/>
	</g>
</g>
</svg>
